<svg viewBox="0 0 1600 1200" xmlns="http://www.w3.org/2000/svg">
  <defs>
    <radialGradient id="plasmaCore" cx="50%" cy="50%" r="50%">
      <stop offset="0%" style="stop-color:#ff4757;stop-opacity:1" />
      <stop offset="100%" style="stop-color:#ff3838;stop-opacity:0.4" />
    </radialGradient>
    <linearGradient id="magnetGrad" x1="0%" y1="0%" x2="100%" y2="0%">
      <stop offset="0%" style="stop-color:#5352ed;stop-opacity:0.8" />
      <stop offset="100%" style="stop-color:#3742fa;stop-opacity:0.5" />
    </linearGradient>
    <radialGradient id="lqgField" cx="50%" cy="50%" r="50%">
      <stop offset="0%" style="stop-color:#2ed573;stop-opacity:0.6" />
      <stop offset="100%" style="stop-color:#1dd1a1;stop-opacity:0.2" />
    </radialGradient>
  </defs>
  
  <!-- Background -->
  <rect width="1600" height="1200" fill="#f1f2f6"/>
  
  <!-- Title Section -->
  <text x="800" y="40" text-anchor="middle" font-size="26" font-weight="bold" fill="#2f3542">
    LQR-1 Assembly Layout - Component Side
  </text>
  <text x="800" y="70" text-anchor="middle" font-size="16" fill="#57606f">
    3.5m Major Radius Toroidal Chamber • 16-Point LQG Enhancement Array
  </text>
  
  <!-- Outer containment structure -->
  <rect x="200" y="120" width="1200" height="800" fill="none" stroke="#2f3640" stroke-width="3" stroke-dasharray="10,5"/>
  <text x="210" y="140" font-size="14" fill="#2f3640" font-weight="bold">
    Reactor Containment Vessel (Lead-lined)
  </text>
  
  <!-- Main Plasma Chamber - Toroidal geometry -->
  <g transform="translate(800,520)">
    <!-- Central torus representation -->
    <ellipse cx="0" cy="0" rx="300" ry="200" fill="url(#plasmaCore)" stroke="#ff3838" stroke-width="6"/>
    <ellipse cx="0" cy="0" rx="250" ry="150" fill="none" stroke="#ff6b81" stroke-width="3" opacity="0.7"/>
    
    <!-- Central hole of torus -->
    <ellipse cx="0" cy="0" rx="120" ry="80" fill="#f1f2f6" stroke="#ff3838" stroke-width="4"/>
    
    <text x="0" y="-10" text-anchor="middle" font-size="18" font-weight="bold" fill="#fff">
      PLASMA CHAMBER
    </text>
    <text x="0" y="10" text-anchor="middle" font-size="14" fill="#fff">
      Tungsten-lined Toroidal
    </text>
    <text x="0" y="30" text-anchor="middle" font-size="12" fill="#fff">
      3.5m major radius
    </text>
  </g>
  
  <!-- Toroidal Field Coils -->
  <g stroke="url(#magnetGrad)" stroke-width="8" fill="none">
    <!-- Multiple coil representations around torus -->
    <ellipse cx="800" cy="520" rx="380" ry="250"/>
    <ellipse cx="800" cy="520" rx="400" ry="270"/>
    <ellipse cx="800" cy="520" rx="420" ry="290"/>
    
    <!-- Coil segments -->
    <g stroke="#3742fa" stroke-width="4">
      <rect x="360" y="420" width="30" height="200" rx="15" fill="#5352ed"/>
      <rect x="1210" y="420" width="30" height="200" rx="15" fill="#5352ed"/>
      <rect x="720" y="190" width="160" height="30" rx="15" fill="#5352ed"/>
      <rect x="720" y="800" width="160" height="30" rx="15" fill="#5352ed"/>
    </g>
  </g>
  
  <!-- Toroidal coil labels -->
  <text x="320" y="450" font-size="12" fill="#3742fa" font-weight="bold">
    TF Coil 1
  </text>
  <text x="320" y="465" font-size="10" fill="#3742fa">
    YBCO Tape
  </text>
  <text x="1250" y="450" font-size="12" fill="#3742fa" font-weight="bold">
    TF Coil 18
  </text>
  <text x="650" y="180" font-size="12" fill="#3742fa" font-weight="bold">
    TF Coils 7-12
  </text>
  
  <!-- Poloidal Field Coils -->
  <g fill="#8e44ad" stroke="#8e44ad" stroke-width="3">
    <circle cx="450" cy="350" r="35"/>
    <circle cx="1150" cy="350" r="35"/>
    <circle cx="450" cy="690" r="35"/>
    <circle cx="1150" cy="690" r="35"/>
    <circle cx="600" cy="250" r="30"/>
    <circle cx="1000" cy="250" r="30"/>
  </g>
  
  <text x="400" y="300" font-size="12" fill="#8e44ad" font-weight="bold">
    PF Coil 1
  </text>
  <text x="400" y="315" font-size="10" fill="#8e44ad">
    NbTi Super-
  </text>
  <text x="400" y="330" font-size="10" fill="#8e44ad">
    conductor
  </text>
  
  <!-- LQG Polymer Field Generators - 16-point array -->
  <g fill="#2ed573" stroke="#1dd1a1" stroke-width="2">
    <!-- Ring 1 - Inner ring (8 generators) -->
    <circle cx="650" cy="420" r="12"/>
    <circle cx="950" cy="420" r="12"/>
    <circle cx="650" cy="620" r="12"/>
    <circle cx="950" cy="620" r="12"/>
    <circle cx="750" cy="320" r="12"/>
    <circle cx="850" cy="320" r="12"/>
    <circle cx="750" cy="720" r="12"/>
    <circle cx="850" cy="720" r="12"/>
    
    <!-- Ring 2 - Outer ring (8 generators) -->
    <circle cx="550" cy="370" r="12"/>
    <circle cx="1050" cy="370" r="12"/>
    <circle cx="550" cy="670" r="12"/>
    <circle cx="1050" cy="670" r="12"/>
    <circle cx="700" cy="270" r="12"/>
    <circle cx="900" cy="270" r="12"/>
    <circle cx="700" cy="770" r="12"/>
    <circle cx="900" cy="770" r="12"/>
  </g>
  
  <!-- LQG field visualization -->
  <ellipse cx="800" cy="520" rx="450" ry="350" fill="url(#lqgField)" opacity="0.3"/>
  
  <!-- LQG Control annotation -->
  <text x="50" y="200" font-size="14" fill="#2ed573" font-weight="bold">
    LQG Polymer Field Array
  </text>
  <text x="50" y="220" font-size="12" fill="#2ed573">
    16 Generators Total:
  </text>
  <text x="50" y="240" font-size="11" fill="#2ed573">
    • Inner Ring: 8 units
  </text>
  <text x="50" y="255" font-size="11" fill="#2ed573">
    • Outer Ring: 8 units
  </text>
  <text x="50" y="275" font-size="11" fill="#2ed573">
    • sinc(πμ) Enhancement
  </text>
  <text x="50" y="290" font-size="11" fill="#2ed573">
    • Dynamic β(t) Control
  </text>
  <text x="50" y="305" font-size="11" fill="#2ed573">
    • &lt;1ms Response Time
  </text>
  
  <!-- Neutral Beam Injectors -->
  <g fill="#ffa502" stroke="#ff6348" stroke-width="3">
    <!-- 4 NBI units positioned around chamber -->
    <rect x="250" y="490" width="120" height="60" rx="10"/>
    <rect x="1230" y="490" width="120" height="60" rx="10"/>
    <rect x="770" y="150" width="60" height="120" rx="10"/>
    <rect x="770" y="750" width="60" height="120" rx="10"/>
  </g>
  
  <!-- NBI beam paths -->
  <g stroke="#ff6348" stroke-width="4" fill="none">
    <path d="M 370 520 Q 500 520 550 520" stroke-dasharray="5,5"/>
    <path d="M 1230 520 Q 1100 520 1050 520" stroke-dasharray="5,5"/>
    <path d="M 800 270 Q 800 400 800 420" stroke-dasharray="5,5"/>
    <path d="M 800 750 Q 800 640 800 620" stroke-dasharray="5,5"/>
  </g>
  
  <text x="250" y="470" font-size="12" fill="#ff6348" font-weight="bold">
    NBI Unit 1
  </text>
  <text x="255" y="515" font-size="10" fill="#fff" font-weight="bold">
    120 keV
  </text>
  <text x="255" y="530" font-size="10" fill="#fff" font-weight="bold">
    D⁰ Beam
  </text>
  <text x="250" y="575" font-size="10" fill="#ff6348">
    40 MW Power
  </text>
  
  <!-- Diagnostic Ports -->
  <g fill="#74b9ff" stroke="#0984e3" stroke-width="2">
    <!-- Thomson scattering -->
    <circle cx="500" cy="450" r="8"/>
    <circle cx="1100" cy="450" r="8"/>
    <circle cx="500" cy="590" r="8"/>
    <circle cx="1100" cy="590" r="8"/>
    <!-- Magnetic diagnostics -->
    <rect x="680" y="380" width="16" height="16" rx="2"/>
    <rect x="904" y="380" width="16" height="16" rx="2"/>
    <rect x="680" y="644" width="16" height="16" rx="2"/>
    <rect x="904" y="644" width="16" height="16" rx="2"/>
  </g>
  
  <text x="50" y="450" font-size="12" fill="#74b9ff" font-weight="bold">
    Diagnostic Systems:
  </text>
  <text x="50" y="470" font-size="10" fill="#74b9ff">
    ○ Thomson Scattering (8×)
  </text>
  <text x="50" y="485" font-size="10" fill="#74b9ff">
    □ Magnetic Pickup (12×)
  </text>
  <text x="50" y="500" font-size="10" fill="#74b9ff">
    • Bolometer Arrays (4×)
  </text>
  
  <!-- Vacuum Ports -->
  <g fill="#636e72" stroke="#2d3436" stroke-width="2">
    <rect x="400" y="200" width="20" height="40" rx="5"/>
    <rect x="1180" y="200" width="20" height="40" rx="5"/>
    <rect x="400" y="780" width="20" height="40" rx="5"/>
    <rect x="1180" y="780" width="20" height="40" rx="5"/>
  </g>
  
  <text x="350" y="195" font-size="10" fill="#636e72">
    Vacuum Port
  </text>
  <text x="350" y="210" font-size="9" fill="#636e72">
    DN200CF
  </text>
  
  <!-- Assembly Sequence Annotations -->
  <g stroke="#2d3436" stroke-width="2" fill="#ddd" opacity="0.9">
    <rect x="1350" y="150" width="230" height="400" rx="10"/>
  </g>
  
  <text x="1465" y="180" text-anchor="middle" font-size="16" font-weight="bold" fill="#2d3436">
    Assembly Sequence
  </text>
  
  <text x="1365" y="210" font-size="12" fill="#2d3436" font-weight="bold">
    Phase 1: Chamber (Month 1)
  </text>
  <text x="1370" y="225" font-size="10" fill="#2d3436">
    • Tungsten segment welding
  </text>
  <text x="1370" y="240" font-size="10" fill="#2d3436">
    • Vacuum integrity testing
  </text>
  <text x="1370" y="255" font-size="10" fill="#2d3436">
    • Port installation
  </text>
  
  <text x="1365" y="285" font-size="12" fill="#2d3436" font-weight="bold">
    Phase 2: Magnets (Month 2)
  </text>
  <text x="1370" y="300" font-size="10" fill="#2d3436">
    • TF coil installation
  </text>
  <text x="1370" y="315" font-size="10" fill="#2d3436">
    • PF coil positioning
  </text>
  <text x="1370" y="330" font-size="10" fill="#2d3436">
    • Cryogenic connections
  </text>
  
  <text x="1365" y="360" font-size="12" fill="#2d3436" font-weight="bold">
    Phase 3: LQG Array (Month 3)
  </text>
  <text x="1370" y="375" font-size="10" fill="#2d3436">
    • 16-point field generator
  </text>
  <text x="1370" y="390" font-size="10" fill="#2d3436">
    • Precision positioning
  </text>
  <text x="1370" y="405" font-size="10" fill="#2d3436">
    • sinc(πμ) calibration
  </text>
  
  <text x="1365" y="435" font-size="12" fill="#2d3436" font-weight="bold">
    Phase 4: Auxiliary (Month 4)
  </text>
  <text x="1370" y="450" font-size="10" fill="#2d3436">
    • NBI installation
  </text>
  <text x="1370" y="465" font-size="10" fill="#2d3436">
    • Diagnostic systems
  </text>
  <text x="1370" y="480" font-size="10" fill="#2d3436">
    • Fuel processing
  </text>
  
  <text x="1365" y="510" font-size="12" fill="#2d3436" font-weight="bold">
    Phase 5: Integration (Month 5)
  </text>
  <text x="1370" y="525" font-size="10" fill="#2d3436">
    • System commissioning
  </text>
  <text x="1370" y="540" font-size="10" fill="#2d3436">
    • Safety validation
  </text>
  
  <!-- Safety Zones -->
  <g stroke="#e17055" stroke-width="3" fill="none" stroke-dasharray="8,4">
    <rect x="150" y="100" width="1300" height="850"/>
  </g>
  
  <text x="1200" y="115" font-size="12" fill="#e17055" font-weight="bold">
    RADIATION EXCLUSION ZONE
  </text>
  
  <!-- Key Dimensions -->
  <g stroke="#2d3436" stroke-width="1" fill="none">
    <!-- Major radius dimension -->
    <line x1="500" y1="520" x2="800" y2="520"/>
    <line x1="495" y1="515" x2="495" y2="525"/>
    <line x1="795" y1="515" x2="795" y2="525"/>
    <text x="650" y="510" text-anchor="middle" font-size="10" fill="#2d3436">3.5m</text>
    
    <!-- Overall height -->
    <line x1="1450" y1="270" x2="1450" y2="770"/>
    <line x1="1445" y1="275" x2="1455" y2="275"/>
    <line x1="1445" y1="765" x2="1455" y2="765"/>
    <text x="1465" y="520" font-size="10" fill="#2d3436">5.0m</text>
  </g>
  
  <!-- Footer Information -->
  <text x="50" y="1000" font-size="12" fill="#2d3436" font-weight="bold">
    Critical Assembly Requirements:
  </text>
  <text x="50" y="1020" font-size="10" fill="#2d3436">
    • All welds X-ray inspected • Leak rate &lt;10⁻¹⁰ Torr·L/s • Magnetic field uniformity ±2%
  </text>
  <text x="50" y="1040" font-size="10" fill="#2d3436">
    • Personnel certified for Class 1 laser operation • Radiation safety training mandatory
  </text>
  <text x="50" y="1060" font-size="10" fill="#2d3436">
    • Cryogenic handling certification required • LQG polymer field generator integration validated
  </text>
  
  <!-- Integration Reference -->
  <text x="50" y="1120" font-size="12" fill="#2d3436" font-weight="bold">
    Integration Points:
  </text>
  <text x="50" y="1140" font-size="10" fill="#2d3436">
    Primary: lqg-polymer-field-generator (Production Ready) • Vessel Power Distribution System
  </text>
  <text x="50" y="1160" font-size="10" fill="#2d3436">
    Outputs: P1 (400 MW → LQG Drive) • P2 (50 MW → Life Support) • P3 (30 MW → Ship Systems) • P4 (20 MW → Crew)
  </text>
</svg>
