<svg viewBox="0 0 1400 1000" xmlns="http://www.w3.org/2000/svg">
  <defs>
    <marker id="arrowhead" markerWidth="10" markerHeight="7" 
            refX="10" refY="3.5" orient="auto">
      <polygon points="0 0, 10 3.5, 0 7" fill="#000" />
    </marker>
    <radialGradient id="plasmaGrad" cx="50%" cy="50%" r="50%">
      <stop offset="0%" style="stop-color:#ff6b6b;stop-opacity:1" />
      <stop offset="100%" style="stop-color:#ff0000;stop-opacity:0.3" />
    </radialGradient>
    <linearGradient id="fieldGrad" x1="0%" y1="0%" x2="100%" y2="0%">
      <stop offset="0%" style="stop-color:#4ecdc4;stop-opacity:0.8" />
      <stop offset="100%" style="stop-color:#45b7d1;stop-opacity:0.4" />
    </linearGradient>
  </defs>
  
  <!-- Background -->
  <rect width="1400" height="1000" fill="#f8f9fa"/>
  
  <!-- Title -->
  <text x="700" y="30" text-anchor="middle" font-size="24" font-weight="bold" fill="#2c3e50">
    LQR-1 LQG Fusion Reactor System Schematic
  </text>
  <text x="700" y="55" text-anchor="middle" font-size="16" fill="#7f8c8d">
    500 MW Thermal • 200 MW Electrical • LQG Polymer Enhancement
  </text>
  
  <!-- Main Plasma Chamber -->
  <ellipse cx="700" cy="400" rx="180" ry="120" fill="url(#plasmaGrad)" stroke="#c0392b" stroke-width="4"/>
  <text x="700" y="410" text-anchor="middle" font-size="16" font-weight="bold" fill="#fff">
    PLASMA CHAMBER
  </text>
  <text x="700" y="430" text-anchor="middle" font-size="12" fill="#fff">
    Te ≥ 15 keV, ne ≥ 10²⁰ m⁻³
  </text>
  <text x="700" y="445" text-anchor="middle" font-size="12" fill="#fff">
    3.5m major radius
  </text>
  
  <!-- Toroidal Field Coils -->
  <g stroke="#2980b9" stroke-width="6" fill="none">
    <ellipse cx="700" cy="400" rx="220" ry="150" stroke-dasharray="10,5"/>
    <ellipse cx="700" cy="400" rx="240" ry="170" stroke-dasharray="10,5"/>
    <ellipse cx="700" cy="400" rx="260" ry="190" stroke-dasharray="10,5"/>
  </g>
  <text x="980" y="405" font-size="12" fill="#2980b9" font-weight="bold">
    Toroidal Field Coils (18×)
  </text>
  <text x="980" y="420" font-size="10" fill="#2980b9">
    YBCO Superconductor
  </text>
  
  <!-- Poloidal Field Coils -->
  <g stroke="#8e44ad" stroke-width="4" fill="none">
    <circle cx="500" cy="300" r="30"/>
    <circle cx="900" cy="300" r="30"/>
    <circle cx="500" cy="500" r="30"/>
    <circle cx="900" cy="500" r="30"/>
    <circle cx="600" cy="200" r="25"/>
    <circle cx="800" cy="200" r="25"/>
  </g>
  <text x="950" y="305" font-size="12" fill="#8e44ad" font-weight="bold">
    Poloidal Field Coils (6×)
  </text>
  <text x="950" y="320" font-size="10" fill="#8e44ad">
    NbTi Superconductor
  </text>
  
  <!-- LQG Polymer Field Generators -->
  <g fill="#27ae60" stroke="#229954" stroke-width="2">
    <!-- Array of 16 field generators around chamber -->
    <circle cx="580" cy="280" r="8"/>
    <circle cx="620" cy="260" r="8"/>
    <circle cx="780" cy="260" r="8"/>
    <circle cx="820" cy="280" r="8"/>
    <circle cx="580" cy="520" r="8"/>
    <circle cx="620" cy="540" r="8"/>
    <circle cx="780" cy="540" r="8"/>
    <circle cx="820" cy="520" r="8"/>
    <circle cx="530" cy="350" r="8"/>
    <circle cx="530" cy="450" r="8"/>
    <circle cx="870" cy="350" r="8"/>
    <circle cx="870" cy="450" r="8"/>
    <circle cx="650" cy="320" r="8"/>
    <circle cx="750" cy="320" r="8"/>
    <circle cx="650" cy="480" r="8"/>
    <circle cx="750" cy="480" r="8"/>
  </g>
  
  <!-- LQG Enhancement Field Visualization -->
  <g fill="url(#fieldGrad)" opacity="0.6">
    <ellipse cx="700" cy="400" rx="300" ry="220"/>
  </g>
  
  <text x="50" y="250" font-size="12" fill="#27ae60" font-weight="bold">
    LQG Polymer Field Array (16×)
  </text>
  <text x="50" y="265" font-size="10" fill="#27ae60">
    sinc(πμ) Enhancement
  </text>
  <text x="50" y="280" font-size="10" fill="#27ae60">
    β(t) Dynamic Control
  </text>
  <text x="50" y="295" font-size="10" fill="#27ae60">
    94% Efficiency Improvement
  </text>
  
  <!-- Neutral Beam Injectors -->
  <g stroke="#f39c12" stroke-width="4" fill="#f39c12">
    <rect x="300" y="380" width="80" height="20" rx="10"/>
    <rect x="1020" y="380" width="80" height="20" rx="10"/>
    <rect x="680" y="180" width="20" height="80" rx="10"/>
    <rect x="680" y="540" width="20" height="80" rx="10"/>
  </g>
  
  <!-- Beam paths -->
  <g stroke="#f39c12" stroke-width="3" fill="none" marker-end="url(#arrowhead)">
    <line x1="380" y1="390" x2="520" y2="390"/>
    <line x1="1020" y1="390" x2="880" y2="390"/>
    <line x1="690" y1="260" x2="690" y2="280"/>
    <line x1="690" y1="520" x2="690" y2="540"/>
  </g>
  
  <text x="300" y="360" font-size="12" fill="#f39c12" font-weight="bold">
    NBI (4×)
  </text>
  <text x="300" y="435" font-size="10" fill="#f39c12">
    120 keV D⁰
  </text>
  <text x="300" y="450" font-size="10" fill="#f39c12">
    40 MW Power
  </text>
  
  <!-- Vacuum System -->
  <g stroke="#95a5a6" stroke-width="3" fill="#bdc3c7">
    <rect x="50" y="600" width="60" height="40" rx="5"/>
    <rect x="130" y="600" width="60" height="40" rx="5"/>
  </g>
  <text x="50" y="590" font-size="12" fill="#95a5a6" font-weight="bold">
    Vacuum System
  </text>
  <text x="50" y="655" font-size="10" fill="#95a5a6">
    Turbo: 2000 L/s
  </text>
  <text x="50" y="670" font-size="10" fill="#95a5a6">
    Target: 10⁻⁹ Torr
  </text>
  
  <!-- Cryogenic System -->
  <g stroke="#3498db" stroke-width="3" fill="#5dade2">
    <rect x="50" y="700" width="60" height="40" rx="5"/>
    <rect x="130" y="700" width="60" height="40" rx="5"/>
  </g>
  <text x="50" y="690" font-size="12" fill="#3498db" font-weight="bold">
    Cryogenic System
  </text>
  <text x="50" y="755" font-size="10" fill="#3498db">
    1.8K Operation
  </text>
  <text x="50" y="770" font-size="10" fill="#3498db">
    500W @ 4.2K
  </text>
  
  <!-- Power Supply -->
  <g stroke="#e74c3c" stroke-width="3" fill="#ec7063">
    <rect x="1200" y="600" width="80" height="60" rx="5"/>
  </g>
  <text x="1200" y="590" font-size="12" fill="#e74c3c" font-weight="bold">
    Power Supply
  </text>
  <text x="1200" y="620" font-size="10" fill="#e74c3c">
    50 MW Pulsed
  </text>
  <text x="1200" y="635" font-size="10" fill="#e74c3c">
    Thyristor-based
  </text>
  <text x="1200" y="675" font-size="10" fill="#e74c3c">
    Emergency Dump:
  </text>
  <text x="1200" y="690" font-size="10" fill="#e74c3c">
    &lt;100ms
  </text>
  
  <!-- Control System -->
  <g stroke="#9b59b6" stroke-width="3" fill="#bb8fce">
    <rect x="1200" y="450" width="80" height="80" rx="5"/>
  </g>
  <text x="1200" y="440" font-size="12" fill="#9b59b6" font-weight="bold">
    Control System
  </text>
  <text x="1200" y="470" font-size="10" fill="#9b59b6">
    Real-time VME
  </text>
  <text x="1200" y="485" font-size="10" fill="#9b59b6">
    Thomson Scatter
  </text>
  <text x="1200" y="500" font-size="10" fill="#9b59b6">
    Magnetic Pickup
  </text>
  <text x="1200" y="515" font-size="10" fill="#9b59b6">
    &lt;1ms Response
  </text>
  
  <!-- Safety Systems -->
  <g stroke="#e67e22" stroke-width="3" fill="#f8c471">
    <rect x="50" y="800" width="120" height="60" rx="5"/>
  </g>
  <text x="50" y="790" font-size="12" fill="#e67e22" font-weight="bold">
    Safety Systems
  </text>
  <text x="55" y="815" font-size="10" fill="#e67e22">
    Radiation Monitoring (24×)
  </text>
  <text x="55" y="830" font-size="10" fill="#e67e22">
    Emergency Shutdown &lt;10s
  </text>
  <text x="55" y="845" font-size="10" fill="#e67e22">
    Tritium Containment
  </text>
  <text x="55" y="860" font-size="10" fill="#e67e22">
    Medical-Grade Protocols
  </text>
  
  <!-- Fuel Processing -->
  <g stroke="#16a085" stroke-width="3" fill="#48c9b0">
    <rect x="50" y="500" width="120" height="60" rx="5"/>
  </g>
  <text x="50" y="490" font-size="12" fill="#16a085" font-weight="bold">
    Fuel Processing
  </text>
  <text x="55" y="515" font-size="10" fill="#16a085">
    Tritium Breeding Blanket
  </text>
  <text x="55" y="530" font-size="10" fill="#16a085">
    Recovery: 1000 Ci/day
  </text>
  <text x="55" y="545" font-size="10" fill="#16a085">
    Pellet Injection: 1000 Hz
  </text>
  <text x="55" y="560" font-size="10" fill="#16a085">
    D-T Fuel: 2.8g D + 4.2g T/day
  </text>
  
  <!-- Performance Specifications -->
  <g stroke="#2c3e50" stroke-width="2" fill="none">
    <rect x="1050" y="120" width="320" height="280" rx="10"/>
  </g>
  <text x="1210" y="145" text-anchor="middle" font-size="16" font-weight="bold" fill="#2c3e50">
    Performance Specifications
  </text>
  
  <text x="1065" y="170" font-size="12" fill="#2c3e50" font-weight="bold">Power Output:</text>
  <text x="1065" y="185" font-size="11" fill="#2c3e50">• 500 MW Thermal</text>
  <text x="1065" y="200" font-size="11" fill="#2c3e50">• 200 MW Electrical</text>
  
  <text x="1065" y="225" font-size="12" fill="#2c3e50" font-weight="bold">Plasma Parameters:</text>
  <text x="1065" y="240" font-size="11" fill="#2c3e50">• Te ≥ 15 keV</text>
  <text x="1065" y="255" font-size="11" fill="#2c3e50">• ne ≥ 10²⁰ m⁻³</text>
  <text x="1065" y="270" font-size="11" fill="#2c3e50">• τE ≥ 3.2 s</text>
  
  <text x="1065" y="295" font-size="12" fill="#2c3e50" font-weight="bold">LQG Enhancement:</text>
  <text x="1065" y="310" font-size="11" fill="#2c3e50">• H-factor = 1.94</text>
  <text x="1065" y="325" font-size="11" fill="#2c3e50">• 94% Efficiency Boost</text>
  <text x="1065" y="340" font-size="11" fill="#2c3e50">• sinc(πμ) Modulation</text>
  
  <text x="1065" y="365" font-size="12" fill="#2c3e50" font-weight="bold">Safety Compliance:</text>
  <text x="1065" y="380" font-size="11" fill="#2c3e50">• ≤10 mSv Exposure</text>
  <text x="1065" y="395" font-size="11" fill="#2c3e50">• Medical-Grade Protocols</text>
  
  <!-- System Integration Arrows -->
  <g stroke="#34495e" stroke-width="2" fill="none" marker-end="url(#arrowhead)">
    <!-- Vacuum to chamber -->
    <path d="M 110 600 Q 300 550 500 450"/>
    <!-- Cryo to magnets -->
    <path d="M 140 700 Q 350 650 500 500"/>
    <!-- Power to system -->
    <path d="M 1200 630 Q 1000 580 950 450"/>
    <!-- Control feedback -->
    <path d="M 1200 490 Q 1100 450 960 400"/>
    <!-- Fuel to chamber -->
    <path d="M 170 500 Q 350 450 520 420"/>
  </g>
  
  <!-- Integration with LQG Systems -->
  <text x="50" y="950" font-size="14" fill="#2c3e50" font-weight="bold">
    Integration Points:
  </text>
  <text x="50" y="970" font-size="12" fill="#2c3e50">
    • lqg-polymer-field-generator (Production Ready) • Vessel Power Distribution (400 MW to LQG Drive)
  </text>
  <text x="50" y="985" font-size="12" fill="#2c3e50">
    • Life Support (50 MW) • Ship Systems (30 MW) • Crew Support (20 MW)
  </text>
  
  <!-- Safety Warning -->
  <rect x="900" y="750" width="450" height="100" fill="#fee" stroke="#e74c3c" stroke-width="2" rx="5"/>
  <text x="1125" y="775" text-anchor="middle" font-size="14" font-weight="bold" fill="#c0392b">
    ⚠️ BLACK AND RED LABEL SAFETY ⚠️
  </text>
  <text x="1125" y="795" text-anchor="middle" font-size="12" fill="#e74c3c">
    High Energy Plasma and Radiation Hazards
  </text>
  <text x="1125" y="815" text-anchor="middle" font-size="11" fill="#e74c3c">
    Personnel require specialized training and certification
  </text>
  <text x="1125" y="835" text-anchor="middle" font-size="11" fill="#e74c3c">
    Emergency protocols: &lt;10s plasma termination, automated containment
  </text>
</svg>
